<?xml version="1.0" encoding="UTF-8"?>
<!DOCTYPE svg PUBLIC "-//W3C//DTD SVG 1.1//EN" "http://www.w3.org/Graphics/SVG/1.1/DTD/svg11.dtd">
<!-- Creator: CorelDRAW -->
<svg xmlns="http://www.w3.org/2000/svg" xml:space="preserve" width="33px" height="50px" style="shape-rendering:geometricPrecision; text-rendering:geometricPrecision; image-rendering:optimizeQuality; fill-rule:evenodd; clip-rule:evenodd"
viewBox="0 0 33 46.6714"
 xmlns:xlink="http://www.w3.org/1999/xlink">
 <defs>
  <style type="text/css">
   <![CDATA[
    .str0 {stroke:black;stroke-width:0.0314286}
    .fil1 {fill:black}
    .fil0 {fill:black}
    .fil2 {fill:#99FF00}
   ]]>
  </style>
 </defs>
 <g id="Capa_x0020_1">
  <metadata id="CorelCorpID_0Corel-Layer"/>
  <path class="fil0" d="M13.5337 29.5603l0.0351843 0.0352157 0.0351686 0.0351843c0.0824529,0.0285686 0.0952914,0.0704 0.1936,0.0704l0.105569 0c0.129439,0 0.153906,-0.0556914 0.246337,-0.105584 0.361366,-0.506471 0.07898,-3.06389 1.16136,-3.51925 -0.153387,-0.167719 -0.212363,-0.478689 -0.181909,-0.695247 0.0190614,-0.135866 0.330094,-0.404344 0.437957,-0.509237 0.372743,-0.36278 0.234787,-0.14839 0.652426,-0.173077 0.240664,-0.0142371 0.388284,0.229554 0.551996,0.374566l-0.200609 -1.61599 0.0246871 -0.00290714 0 -0.0879686c0,-1.30663 0.89045,-1.35864 1.93558,-1.75965l-0.651074 -0.668643c-0.543274,0.247327 -1.18281,0.573037 -1.75087,0.730211 -0.734533,0.203217 -1.50122,-0.0460271 -2.05801,0.14861 -0.532667,0.186214 -0.868057,0.867586 -1.1493,1.32471 -0.146426,0.237961 -0.344017,0.516246 -0.381684,0.796761 -0.03025,0.224934 0.0875443,0.48488 0.350303,0.424239 0.45727,-0.105411 0.793964,-1.1427 1.04679,-1.02174 0.215726,0.10318 -0.0990314,1.53711 -0.139197,1.78552 -0.235007,1.45312 -0.511421,2.96882 -0.264314,4.43388z"/>
  <path class="fil1" d="M22.7366 17.2956c0.00946,0.0744071 -0.0619929,0.654453 -0.206171,0.642149 -0.128747,-0.0110157 -0.607074,-0.117951 -0.624847,-0.254289 -0.0164686,-0.126453 0.0299829,-0.65175 0.201127,-0.61897 0.0955114,0.0182914 0.619347,0.147777 0.629891,0.23111zm0.915027 -0.668643c-0.0163586,0.163711 -0.0301871,0.593717 -0.220047,0.624643 -0.16225,0.0264314 -0.64603,0.0584414 -0.625051,-0.184721 0.0127286,-0.147039 0.00682,-0.604937 0.209299,-0.594707 0.185853,0.00946 0.654296,-0.0305957 0.6358,0.154786zm-1.56605 -0.316737c0.00518571,0.116694 -0.0378871,0.675557 -0.189279,0.659089 -0.119711,-0.0130429 -0.625114,-0.12793 -0.643186,-0.238794 -0.01529,-0.0934843 0.0423971,-0.654421 0.204239,-0.65021 0.113426,0.00297 0.622459,0.101169 0.628226,0.229916zm-1.68925 0.52789l0.0527843 0.0175686 0.404706 -0.0351843 0.0527843 0c0.32329,0 0.297204,0.0644286 0.243069,0.3487 -0.0498929,0.262334 0.00498143,0.392684 -0.288891,0.392684l-0.13717 0.000314286 -0.09856 -0.00264 -0.0175686 0c-0.5269,0 -0.194323,0.0325129 -0.263937,-0.439937l-0.175984 -0.175921c-0.160961,0.0202086 -0.530231,0.270647 -0.546071,0.181893 -0.0233357,-0.130979 0.0661886,-0.634967 0.176959,-0.710097 0.843071,-0.571749 0.710003,-0.287949 0.597881,0.42262zm1.86518 -1.3549c0.10615,0.00862714 0.631494,0.127914 0.692544,0.186796 0.0656229,0.0632186 -0.0408886,0.656433 -0.0917557,0.701737 -0.0610029,0.05434 -0.616629,-0.0961243 -0.676909,-0.15884 -0.0712329,-0.0741871 0.0470329,-0.612794 0.07612,-0.729693zm2.30516 -0.123184c0.00405429,0.159971 -0.0478971,0.650666 -0.156231,0.75878 -0.0819971,0.0819343 -0.548161,0.333269 -0.645684,0.287493 -0.0641143,-0.03014 0.0242157,-0.655144 0.136243,-0.726581 0.150983,-0.0963286 0.431813,-0.164607 0.665673,-0.319691zm-3.32571 -0.105584c0.317193,0 0.176236,0.279479 0.135347,0.522437 -0.0586614,0.348213 -0.23584,0.217391 -0.554966,0.237129 -0.357201,0.0221414 -0.265556,-0.0421929 -0.199776,-0.393517 0.0625114,-0.333787 0.0503014,-0.366049 0.425794,-0.366049l0.1936 0zm2.30505 -0.298493l0.176031 -0.000628571c0.288939,0 0.186953,0.0869786 0.149019,0.360171 -0.03388,0.243839 -0.00950714,0.361256 -0.289819,0.361256l-0.158369 0c-0.519577,0 -0.393014,-0.27709 -0.263277,-0.74855l0.386414 0.0277514zm-1.93553 -0.422934c0.132707,0.00295429 0.59466,0.0744543 0.68574,0.158667 0.0868686,0.0803314 -0.0295114,0.642196 -0.0805829,0.680334 -0.0440157,0.0327957 -0.63987,-0.109151 -0.671974,-0.133053 -0.0870886,-0.0648529 0.0456657,-0.589569 0.0668171,-0.705949zm-1.16136 0.0351686l-0.123184 0.140753c0.198739,-0.07227 0.458323,-0.266184 0.41239,0.0237443 -0.03025,0.191211 -0.00276571,0.504413 -0.217187,0.576164 -0.847896,0.283737 -0.56078,0.530389 -0.599909,-0.212771l-0.105569 0.105584c-0.219843,1.07376 -0.374676,2.19672 -0.55429,3.28176 -0.0909229,0.549497 -0.179159,1.09994 -0.268101,1.64986 -0.101577,0.627959 -0.52602,0.521039 -1.09833,0.748817 0.19426,0.221241 0.351497,0.98835 0.744606,0.726739 0.0887857,-0.0590857 0.283533,-0.0710757 0.41129,-0.215521 0.296261,-0.339806 -0.01584,-0.773756 0.0835057,-1.36519 0.0710757,-0.423343 0.138207,-0.846969 0.207664,-1.27052 0.0747214,-0.45562 0.0905143,-0.704503 0.546181,-0.914304 0.398734,-0.183621 0.813246,-0.214846 1.24471,-0.158117 0.970766,0.127726 1.37157,0.525297 2.44835,0.34947l-0.0351843 -0.0704c-0.167719,0.0206329 0.0375257,-0.68464 0.0704629,-0.703717 0.00633286,-0.00369286 0.674976,-0.306759 0.68299,-0.31075l0.03839 0.0818714 0.0704 -0.0879529c0.09977,-0.593466 0.19459,-1.1902 0.292003,-1.78434 0.177069,-1.07957 -0.0349171,-0.458841 -0.768916,-0.328947 -1.20304,0.212929 -2.07707,-0.8041 -3.48227,-0.262224z"/>
  <path class="fil0 str0" d="M15.8916 26.4633c0.248616,0.498331 0.368909,0.964291 0.459203,1.51162 0.07414,0.449539 0.03861,1.32918 0.297456,1.65574 0.0715943,0.0248286 0.132031,0.0704 0.211153,0.0704l0.0703529 0c0.0855329,0 0.142371,-0.02453 0.211169,-0.0704l0.105569 -0.0879686c0.0923843,-0.191353 0.105584,-0.315951 0.105584,-0.52789l0 -0.281553c0,-0.926263 -0.295743,-2.21798 -0.475106,-3.14974 -0.109324,-0.0679014 -0.807683,0.806284 -0.98538,0.879796z"/>
  <path class="fil0 str0" d="M16.226 25.5659c-0.114211,0.3806 -0.734894,0.244043 -0.619646,-0.196711 0.103494,-0.395607 0.748959,-0.234379 0.619646,0.196711zm-0.791843 0.510337c0.180557,0.0251429 0.305407,0.176959 0.404706,0.316737 0.278913,-0.139464 -0.00644286,-0.245504 0.364524,-0.603287 0.400604,-0.386257 0.364446,-0.145326 0.638471,-0.36454l-0.0351843 -0.175984c-0.0902943,-0.100791 -0.388646,-0.4356 -0.504507,-0.456343 -0.248616,-0.0445186 -0.47894,-0.0673829 -0.659403,0.119507 -0.106449,0.110251 -0.417481,0.367447 -0.421111,0.513339 -0.00612857,0.246589 0.0322143,0.478123 0.212504,0.650571z"/>
  <path class="fil0 str0" d="M13.6041 29.6307l-0.624894 0.0565871 0.000628571 0.0445657 0.74745 0.0396 0.0176157 0c0.809411,0 1.61885,0 2.4283,0 0.401531,0 0.798176,0.00509143 1.19955,-0.0145986 0.00614429,-0.000267143 0.50182,-0.0237443 0.32329,-0.07139 -0.148233,-0.0395371 -0.361837,-0.01408 -0.55506,-0.0547643 -0.0687971,0.04587 -0.125636,0.0704 -0.211169,0.0704l-0.0703529 0c-0.0791214,0 -0.139559,-0.0455714 -0.211153,-0.0704l-0.0825 -0.00484 -0.0149757 0.000785714 -0.113677 0.00468286 -2.00599 -0.000628571 -0.281553 -0.0351843c-0.0924314,0.0498929 -0.116899,0.105584 -0.246337,0.105584l-0.105569 0c-0.0983086,0 -0.111147,-0.0418314 -0.1936,-0.0704z"/>
  <path class="fil0 str0" d="M17.3873 29.5779l0.897411 0.0704c0.0275786,-0.01408 0.0572,-0.0325757 0.0898229,-0.0341943l0.892273 0.0596043 -0.00150857 0.02255c-0.0144886,0.0999586 -0.543054,0.110409 -0.646297,0.110409l-0.351906 0c-0.06952,0 -0.0656229,-0.00260857 -0.1232,-0.0352314 -0.284256,0.0998643 -4.18415,0.103919 -4.39906,0l-0.0176157 0 0 0.0176157 -0.175969 0.0176157 -0.527843 0c-0.144131,0 -0.945796,-0.01408 -1.01131,-0.0952443 0.02728,-0.0687971 0.765191,-0.115924 0.870509,-0.115924l0.405051 -0.00284429 0.175623 0.0204129 0.105584 -0.0175686 -0.0351843 -0.0352157c-0.546229,0 -1.11802,0.0153214 -1.66218,0.05808 -0.856114,0.0672886 -0.235887,0.183621 0.178326,0.211624 1.12363,0.07601 2.35524,0.0294643 3.48984,0.0294643 1.16837,0 2.32755,0.00997857 3.49545,-0.0414071 0.584681,-0.0257243 0.953841,-0.158054 0.102677,-0.195831 -0.584163,-0.0259286 -1.16569,-0.0443143 -1.75051,-0.0443143z"/>
  <path class="fil0 str0" d="M17.141 29.6307c0.193223,0.0406843 0.406827,0.0152271 0.55506,0.0547643 0.17853,0.0476457 -0.317146,0.0711229 -0.32329,0.07139 -0.401374,0.01969 -0.798019,0.0145986 -1.19955,0.0145986 -0.809443,0 -1.61889,0 -2.4283,0 0.214909,0.103919 4.1148,0.0998643 4.39906,0l0.0980571 -0.00493429 0.483199 -0.03949 0.00177571 -0.0246871 -0.442216 -0.0540257 -0.897411 -0.0704 -0.140816 -0.0351843 -0.105569 0.0879686z"/>
  <path class="fil0 str0" d="M16.226 25.5659c0.129313,-0.43109 -0.516151,-0.592319 -0.619646,-0.196711 -0.115249,0.440754 0.505434,0.577311 0.619646,0.196711z"/>
  <path class="fil0 str0" d="M15.8388 26.393l0.0527843 0.0703371c0.177697,-0.0735114 0.876056,-0.947697 0.98538,-0.879796l-0.0351686 -0.158369c-0.274026,0.219214 -0.237867,-0.0217171 -0.638471,0.36454 -0.370967,0.357783 -0.0856114,0.463823 -0.364524,0.603287z"/>
  <path class="fil0 str0" d="M15.3109 26.0762l0.123184 0c-0.18029,-0.172449 -0.218633,-0.403983 -0.212504,-0.650571 0.00363,-0.145891 0.314663,-0.403087 0.421111,-0.513339 0.180463,-0.18689 0.410787,-0.164026 0.659403,-0.119507 0.115861,0.0207429 0.414213,0.355551 0.504507,0.456343l-0.0352314 -0.175921c-0.163711,-0.145011 -0.311331,-0.388803 -0.551996,-0.374566 -0.417639,0.0246871 -0.279683,-0.189703 -0.652426,0.173077 -0.107863,0.104893 -0.418896,0.373371 -0.437957,0.509237 -0.0304543,0.216559 0.0285214,0.527529 0.181909,0.695247z"/>
  <path class="fil0 str0" d="M13.7273 29.789l-0.175969 0 -0.263906 0 -0.733009 -0.05929 0.00191714 -0.0222829c0.0856271,-0.112797 0.735303,-0.0562257 0.907029,-0.0944114l-0.175623 -0.0204129 -0.405051 0.00284429c-0.105317,0 -0.843229,0.0471271 -0.870509,0.115924 0.0655129,0.0811643 0.867177,0.0952443 1.01131,0.0952443l0.527843 0 0.175969 -0.0176157z"/>
  <path class="fil0" d="M24.3379 17.0317c-0.11352,0.197089 -0.0114871,0.503266 -0.213337,0.648906 -0.215993,0.15587 -0.33803,0.190536 -0.578506,0.28369l0.0351843 0.0704c0.202887,-0.0259757 0.477227,-0.186576 0.638974,-0.311221 0.116899,-0.09009 0.157693,-0.613266 0.188084,-0.779727l-0.0704 0.0879529z"/>
  <path class="fil0 str0" d="M18.2847 29.6483l0.442216 0.0540257 -0.00177571 0.0246871 -0.483199 0.03949 -0.0980571 0.00493429c0.0575771,0.0326229 0.05368,0.0352314 0.1232,0.0352314l0.351906 0c0.103243,0 0.631809,-0.01045 0.646297,-0.110409l0.00150857 -0.02255 -0.892273 -0.0596043c-0.0326229,0.00161857 -0.0622443,0.0201143 -0.0898229,0.0341943z"/>
  <path class="fil0 str0" d="M13.4633 29.6131c-0.171726,0.0381857 -0.821401,-0.0183857 -0.907029,0.0944114l-0.00191714 0.0222829 0.733009 0.05929 0.263906 0 0.175969 0 0 -0.0176157 -0.74745 -0.0396 -0.000628571 -0.0445657 0.624894 -0.0565871 -0.0351686 -0.0351843 -0.105584 0.0175686z"/>
  <path class="fil0" d="M19.8156 15.2017l0.105569 -0.105584c0.0939871,-0.143566 -0.00238857,-0.117119 0.165597,-0.239109 0.0433243,-0.0314914 0.197277,-0.129423 0.239109,-0.148029l0.123184 -0.140753c-0.266326,0.0600129 -0.701423,0.315339 -0.633459,0.633474z"/>
  <polygon class="fil0" points="20.1675,16.9437 20.3435,17.1196 20.3766,17.1007 20.4491,16.8557 20.3963,16.8381 20.1843,16.9057 "/>
  <path class="fil0" d="M12.4125 16.8217l0 0.564017c0,0.424899 0.229366,1.12362 0.359449,1.44538 0.15807,0.391003 0.406214,0.85063 0.644019,1.16081 0.12595,0.164261 0.262397,0.353964 0.40216,0.500249 0.155556,0.1628 0.297833,0.294376 0.451487,0.450937 0.158871,0.161904 0.86207,0.664636 1.1402,0.664636 0.766621,0 1.83244,-1.20195 2.17236,-1.71127 0.492533,-0.738021 0.953873,-1.70536 0.953873,-2.92972 0,-0.864977 -0.423091,-1.65591 -0.858079,-2.0909 -0.430556,-0.43054 -1.1811,-0.938646 -2.02644,-0.938646l-0.467327 0c-0.313956,0 -0.86669,0.199729 -1.09035,0.311614 -0.32065,0.160364 -0.575221,0.362953 -0.815163,0.60291 -0.409609,0.409609 -0.866187,1.16012 -0.866187,1.96997z"/>
  <path class="fil2" d="M15.7482 19.5773l0 0.29007c0,0.277326 0.238291,0.483434 0.531787,0.483434 0.418629,0 0.906133,-0.516324 1.09579,-0.773504 0.227417,-0.308393 0.515664,-0.838561 0.515664,-1.36974 0,-0.34353 -0.163067,-0.644584 -0.499557,-0.644584l-0.0483371 0c-0.674661,0 -1.59535,1.2776 -1.59535,2.01432z"/>
  <path class="fil2" d="M13.041 18.1915l0 0.0483371c0,0.816609 0.885641,2.11101 1.61145,2.11101 0.324689,0 0.531771,-0.233844 0.531771,-0.547894l0 -0.177257c0,-0.802576 -0.893577,-2.06267 -1.65979,-2.06267 -0.324469,0 -0.483434,0.29458 -0.483434,0.628477z"/>
 </g>
</svg>
