<?xml version="1.0" encoding="UTF-8"?>
<!DOCTYPE svg PUBLIC "-//W3C//DTD SVG 1.1//EN" "http://www.w3.org/Graphics/SVG/1.1/DTD/svg11.dtd">
<!-- Creator: CorelDRAW -->
<svg xmlns="http://www.w3.org/2000/svg" xml:space="preserve" width="150mm" height="150mm" style="shape-rendering:geometricPrecision; text-rendering:geometricPrecision; image-rendering:optimizeQuality; fill-rule:evenodd; clip-rule:evenodd"
viewBox="0 0 150 150"
 xmlns:xlink="http://www.w3.org/1999/xlink">
 <defs>
  <style type="text/css">
   <![CDATA[
    .str0 {stroke:#99FF00;stroke-width:2}
    .fil2 {fill:none}
    .fil1 {fill:black}
    .fil0 {fill:#99FF00}
    .fil3 {fill:black;fill-rule:nonzero}
   ]]>
  </style>
 </defs>
 <g id="Capa_x0020_1">
  <metadata id="CorelCorpID_0Corel-Layer"/>
  <g id="_313914896">
   <path id="_313914392" class="fil0" d="M30.6262 54.4085l0 6.4965c0,9.5051 4.8178,23.516 8.4663,29.4651 4.2794,6.9778 10.4917,16.4821 16.6425,21.2889 5.9851,4.6774 15.3409,13.8391 26.0273,8.9742 7.201,-3.2782 16.5328,-11.1666 20.9547,-17.1862 5.8144,-7.9151 10.2419,-13.6493 13.7524,-24.1789 3.0758,-9.2256 5.3325,-21.7767 2.5099,-32.9491 -4.4234,-17.5089 -20.5373,-34.0333 -42.0391,-34.0333l-3.353 0c-22.1364,0 -42.961,20.2795 -42.961,42.1228z"/>
   <path id="_313914536" class="fil1" d="M35.6558 54.8276l0 7.3348c0,5.5257 2.9828,14.6123 4.6744,18.7969 2.0557,5.0848 5.2827,11.0621 8.3754,15.0959 1.6379,2.1363 3.4123,4.6033 5.23,6.5058 2.0228,2.1171 3.8733,3.8282 5.8714,5.8643 2.0662,2.1055 11.2109,8.6433 14.828,8.6433 9.9697,0 23.8305,-15.631 28.2509,-22.2545 6.4054,-9.5979 12.4049,-22.1779 12.4049,-38.1004 0,-11.2488 -5.5022,-21.5346 -11.1591,-27.1915 -5.5993,-5.5992 -15.3598,-12.2069 -26.3532,-12.2069l-6.0774 0c-4.0829,0 -11.2711,2.5975 -14.1799,4.0524 -4.1699,2.0856 -7.4805,4.7203 -10.601,7.8407 -5.3268,5.3269 -11.2644,15.0872 -11.2644,25.6192z"/>
   <path id="_313914584" class="fil0" d="M79.0359 90.6633l0 3.7722c0,3.6066 3.099,6.287 6.9157,6.287 5.4442,0 11.7842,-6.7147 14.2505,-10.0592 2.9575,-4.0106 6.7061,-10.9053 6.7061,-17.8131 0,-4.4675 -2.1207,-8.3826 -6.4966,-8.3826l-0.6287 0c-8.7737,0 -20.747,16.6149 -20.747,26.1957z"/>
   <path id="_313914752" class="fil0" d="M43.8289 72.6406l0 0.6288c0,10.6197 11.5175,27.4531 20.9565,27.4531 4.2225,0 6.9157,-3.0411 6.9157,-7.1253l0 -2.3052c0,-10.4372 -11.6208,-26.8244 -21.5853,-26.8244 -4.2197,0 -6.2869,3.8309 -6.2869,8.173z"/>
   <path id="_313914800" class="fil2 str0" d="M74.0321 43.4296c0,-1.3088 0.9947,-2.3698 2.2217,-2.3698 1.227,0 2.2217,1.061 2.2217,2.3698 0,2.6176 -1.9894,4.7396 -4.4434,4.7396 -2.454,0 -4.4434,-2.122 -4.4434,-4.7396 0,-3.9265 2.9841,-7.1095 6.6651,-7.1095 3.6811,0 6.6652,3.183 6.6652,7.1095 0,5.2353 -3.9788,9.4793 -8.8869,9.4793 -4.9081,0 -8.8868,-4.244 -8.8868,-9.4793 0,-6.5441 4.9734,-11.8492 11.1085,-11.8492 6.1351,0 11.1087,5.3051 11.1087,11.8492 0,7.8529 -5.9683,14.219 -13.3304,14.219 -7.3621,0 -13.3303,-6.3661 -13.3303,-14.219 0,-9.1618 6.9629,-16.5888 15.552,-16.5888 8.5892,0 15.5521,7.427 15.5521,16.5888 0,10.4705 -7.9576,18.9586 -17.7738,18.9586 -9.8161,0 -17.7737,-8.4881 -17.7737,-18.9586"/>
   <path id="_313914944" class="fil3" d="M7.3748 133.841l1.8102 0 -0.8773 -2.5662 -0.9329 2.5662zm-3.957 2.5157l3.1623 -7.2961 3.5866 0 2.9501 7.2961 -3.063 0 -0.2424 -0.7156 -3.1034 0 -0.261 0.7156 -3.0292 0zm10.1721 0l0 -7.3551 2.5746 0 0 7.3551 -2.5746 0zm4.08 0l0 -5.6577 2.5746 0 0 5.6577 -2.5746 0zm0 -6.1208l0 -1.4363 2.5746 0 0 1.4363 -2.5746 0zm6.2017 2.6672l2.9989 0c-0.0354,-0.3132 -0.1768,-0.554 -0.4243,-0.7257 -0.2459,-0.1701 -0.5776,-0.256 -0.9918,-0.256 -0.4462,0 -0.8066,0.0842 -1.0777,0.2509 -0.2711,0.1684 -0.4395,0.4126 -0.5051,0.7308zm5.5449 1.7277c-0.192,0.628 -0.6331,1.1046 -1.3269,1.4295 -0.6937,0.325 -1.6182,0.4884 -2.7733,0.4884 -1.2814,0 -2.2732,-0.2627 -2.9737,-0.7898 -0.7005,-0.5253 -1.0507,-1.2696 -1.0507,-2.2294 0,-0.9631 0.3502,-1.7091 1.0507,-2.2345 0.7005,-0.527 1.6923,-0.7897 2.9737,-0.7897 1.3622,0 2.3944,0.2964 3.0966,0.8908 0.7022,0.5944 1.0524,1.4666 1.0524,2.6167l0 0.0993 -5.4658 0c0,0.3065 0.128,0.5422 0.3856,0.7106 0.256,0.1667 0.6163,0.2509 1.0794,0.2509 0.3065,0 0.5607,-0.037 0.7645,-0.1128 0.2037,-0.0758 0.3502,-0.1852 0.4394,-0.33l2.7481 0zm1.0019 1.7259l0 -5.6577 2.5258 0 0 0.5876c0.3384,-0.2374 0.6904,-0.4125 1.0558,-0.527 0.3653,-0.1128 0.7577,-0.1701 1.1786,-0.1701 0.8285,0 1.4347,0.2105 1.8186,0.6315 0.3822,0.4209 0.5742,1.0894 0.5742,2.0037l0 3.132 -2.5258 0 0 -2.6588c0,-0.421 -0.0673,-0.7106 -0.202,-0.8705 -0.1347,-0.16 -0.3705,-0.2392 -0.7056,-0.2392 -0.3721,0 -0.6634,0.0893 -0.8756,0.2661 -0.2121,0.1785 -0.3182,0.4226 -0.3182,0.7358l0 2.7666 -2.5258 0zm17.8034 -5.7268l-1.5492 0 0 1.5744 1.5492 0c0.4596,0 0.7779,-0.0589 0.953,-0.1751 0.1768,-0.1162 0.2644,-0.3199 0.2644,-0.6095 0,-0.293 -0.0876,-0.4985 -0.2644,-0.6147 -0.1751,-0.1161 -0.4934,-0.1751 -0.953,-0.1751zm-4.3764 5.7268l0 -7.2961 5.4557 0c1.0322,0 1.8287,0.2071 2.3894,0.6196 0.5607,0.4126 0.8419,0.9952 0.8419,1.7479 0,0.751 -0.2812,1.3319 -0.8419,1.7444 -0.5607,0.4126 -1.3572,0.6197 -2.3894,0.6197l-2.6285 0 0 2.5645 -2.8272 0zm9.5441 0l0 -5.6577 2.5056 0 0.0303 0.4344c0.1903,-0.192 0.4176,-0.3351 0.6803,-0.4328 0.2627,-0.0959 0.559,-0.1448 0.8891,-0.1448 0.6499,0 1.1281,0.1768 1.4329,0.5304 0.3048,0.3537 0.4563,0.911 0.4563,1.6738l0 0.4934 -2.2344 0 0 -0.0388c0,-0.2862 -0.0489,-0.5001 -0.1482,-0.6398 -0.0994,-0.1398 -0.2492,-0.2088 -0.4496,-0.2088 -0.2138,0 -0.3671,0.0808 -0.4563,0.2408 -0.091,0.1616 -0.1364,0.4378 -0.1364,0.8284l0 2.9215 -2.5696 0zm9.1955 -2.8272c0,0.389 0.1179,0.6971 0.3519,0.9278 0.2358,0.2307 0.5523,0.3452 0.9514,0.3452 0.3974,0 0.714,-0.1145 0.9497,-0.3452 0.2341,-0.2307 0.3519,-0.5388 0.3519,-0.9278 0,-0.3906 -0.1178,-0.7021 -0.3519,-0.9295 -0.2357,-0.229 -0.5523,-0.3435 -0.9497,-0.3435 -0.3991,0 -0.7156,0.1145 -0.9514,0.3435 -0.234,0.2274 -0.3519,0.5389 -0.3519,0.9295zm-2.6689 0c0,-0.9598 0.3469,-1.704 1.0406,-2.2328 0.6938,-0.527 1.6738,-0.7914 2.94,-0.7914 1.2697,0 2.2497,0.2627 2.9383,0.7897 0.6887,0.5254 1.0339,1.2714 1.0339,2.2345 0,0.9598 -0.3452,1.7041 -1.0339,2.2294 -0.6886,0.5271 -1.6686,0.7898 -2.9383,0.7898 -1.2662,0 -2.2462,-0.2627 -2.94,-0.7898 -0.6937,-0.5253 -1.0406,-1.2696 -1.0406,-2.2294zm9.076 -3.2936l0 -1.4363 2.5459 0 0 1.4363 -2.5459 0zm-1.071 5.9979l0.3755 0c0.2762,0 0.4614,-0.059 0.5557,-0.1768 0.0926,-0.1196 0.1398,-0.4563 0.1398,-1.012l0 -4.346 2.5459 0 0 5.5449c0,0.4597 -0.0353,0.7847 -0.1061,0.9732 -0.0707,0.1903 -0.1936,0.357 -0.367,0.5002 -0.1718,0.1481 -0.4176,0.2609 -0.7376,0.3367 -0.3216,0.0758 -0.7055,0.1128 -1.1534,0.1128 -0.2071,0 -0.4142,-0.0101 -0.6213,-0.032 -0.2071,-0.0218 -0.4176,-0.0522 -0.6315,-0.0909l0 -1.8101zm7.1648 -3.3307l2.9989 0c-0.0354,-0.3132 -0.1768,-0.554 -0.4243,-0.7257 -0.2459,-0.1701 -0.5776,-0.256 -0.9918,-0.256 -0.4462,0 -0.8066,0.0842 -1.0777,0.2509 -0.2711,0.1684 -0.4395,0.4126 -0.5051,0.7308zm5.5449 1.7277c-0.192,0.628 -0.6331,1.1046 -1.3269,1.4295 -0.6937,0.325 -1.6182,0.4884 -2.7733,0.4884 -1.2814,0 -2.2732,-0.2627 -2.9737,-0.7898 -0.7005,-0.5253 -1.0507,-1.2696 -1.0507,-2.2294 0,-0.9631 0.3502,-1.7091 1.0507,-2.2345 0.7005,-0.527 1.6923,-0.7897 2.9737,-0.7897 1.3622,0 2.3944,0.2964 3.0966,0.8908 0.7022,0.5944 1.0524,1.4666 1.0524,2.6167l0 0.0993 -5.4658 0c0,0.3065 0.128,0.5422 0.3856,0.7106 0.256,0.1667 0.6163,0.2509 1.0794,0.2509 0.3065,0 0.5607,-0.037 0.7645,-0.1128 0.2037,-0.0758 0.3502,-0.1852 0.4394,-0.33l2.7481 0zm8.7325 -0.7611c-0.0927,0.8907 -0.4766,1.5609 -1.1518,2.0088 -0.6769,0.4462 -1.6384,0.6702 -2.8895,0.6702 -1.2915,0 -2.2917,-0.2627 -2.9972,-0.7898 -0.7056,-0.5253 -1.0575,-1.2696 -1.0575,-2.2294 0,-0.9564 0.3519,-1.7007 1.0575,-2.2294 0.7055,-0.5304 1.7057,-0.7948 2.9972,-0.7948 1.2006,0 2.1368,0.2055 2.8087,0.6163 0.6702,0.4109 1.0642,1.0221 1.1837,1.8304l-2.7093 0c-0.1027,-0.2594 -0.2559,-0.4547 -0.4597,-0.5843 -0.2037,-0.1297 -0.458,-0.1954 -0.7644,-0.1954 -0.4496,0 -0.8032,0.1196 -1.0592,0.357 -0.2576,0.2391 -0.3856,0.5692 -0.3856,0.9901 0,0.4075 0.1246,0.7325 0.3755,0.9716 0.2492,0.2408 0.586,0.3603 1.0103,0.3603 0.3519,0 0.6483,-0.0875 0.8908,-0.2643 0.2408,-0.1751 0.3923,-0.4143 0.4512,-0.7173l2.6993 0zm4.804 2.4786c-0.2206,0.0353 -0.4344,0.0623 -0.6416,0.0808 -0.2071,0.0185 -0.4074,0.0269 -0.6011,0.0269 -0.3132,0 -0.5944,-0.0185 -0.8436,-0.0572 -0.2509,-0.037 -0.4748,-0.096 -0.6719,-0.1751 -0.2795,-0.1145 -0.4765,-0.2829 -0.591,-0.5018 -0.1162,-0.2206 -0.1734,-0.5809 -0.1734,-1.081l0 -2.216 -0.9026 0 0 -1.5828 0.9026 0 0 -1.8506 2.546 0 0 1.8506 0.9076 0 0 1.5828 -0.9076 0 0 1.1753c0,0.5591 0.0404,0.8975 0.1229,1.0154 0.0825,0.1196 0.2475,0.1785 0.4933,0.1785l0.3604 0 0 1.5542zm13.518 -0.6382c-0.33,0.2896 -0.751,0.5018 -1.2663,0.6365 -0.5152,0.1347 -1.1568,0.2021 -1.9263,0.2021 -1.6215,0 -2.844,-0.3233 -3.6708,-0.9699 -0.8251,-0.645 -1.2376,-1.6014 -1.2376,-2.8676 0,-1.2697 0.4125,-2.2278 1.2376,-2.8727 0.8268,-0.6466 2.0493,-0.9699 3.6708,-0.9699 1.3656,0 2.4584,0.2324 3.2818,0.6954 0.8218,0.4631 1.2882,1.108 1.396,1.9331l-3.0983 0c-0.1516,-0.2963 -0.352,-0.5152 -0.5995,-0.6601 -0.2475,-0.1448 -0.5489,-0.2172 -0.9008,-0.2172 -0.5877,0 -1.0609,0.1886 -1.4162,0.5675 -0.3552,0.3772 -0.5321,0.8857 -0.5321,1.5239 0,0.6449 0.1752,1.145 0.5254,1.502 0.3502,0.3569 0.8386,0.5354 1.4666,0.5354 0.4698,0 0.8622,-0.0859 1.1737,-0.2559 0.3132,-0.1718 0.5035,-0.4041 0.5725,-0.7005l-1.1736 0 0 -1.5795 4.0749 0 0 4.144 -1.273 0 -0.3048 -0.6466zm7.9461 -1.9886c-0.2627,0.1313 -0.7139,0.2189 -1.3521,0.261 -0.1836,0.0101 -0.325,0.0202 -0.4243,0.0303 -0.3705,0.0337 -0.6231,0.0875 -0.7561,0.1633 -0.133,0.0758 -0.2004,0.192 -0.2004,0.3503 0,0.1768 0.0792,0.3148 0.2391,0.4125 0.16,0.096 0.3856,0.1448 0.6786,0.1448 0.5557,0 1.0002,-0.1111 1.3319,-0.3351 0.3318,-0.2239 0.4985,-0.5203 0.4985,-0.889 0,-0.0388 0,-0.0674 -0.0017,-0.0859 -0.0017,-0.0185 -0.0067,-0.0354 -0.0135,-0.0522zm0.0101 1.8606c-0.3149,0.3317 -0.6954,0.5742 -1.1416,0.7275 -0.4463,0.1532 -1.0103,0.229 -1.6957,0.229 -0.9227,0 -1.6181,-0.155 -2.0812,-0.4631 -0.4631,-0.3098 -0.6954,-0.7746 -0.6954,-1.3976 0,-0.2037 0.0269,-0.3923 0.0791,-0.5641 0.0522,-0.1734 0.1263,-0.3216 0.2223,-0.4462 0.1936,-0.2408 0.4529,-0.4193 0.7762,-0.5355 0.325,-0.1178 0.9346,-0.2054 1.8337,-0.2643 0.2947,-0.0202 0.6803,-0.0371 1.1535,-0.0539 0.9547,-0.0404 1.4312,-0.1718 1.4312,-0.3991 0,-0.1549 -0.101,-0.2778 -0.3014,-0.3721 -0.2003,-0.0926 -0.4731,-0.1398 -0.8183,-0.1398 -0.4479,0 -0.7662,0.0421 -0.9581,0.128 -0.1903,0.0859 -0.3014,0.2307 -0.3351,0.4378l-2.61 0c0.0522,-0.687 0.3738,-1.1787 0.9649,-1.4767 0.5893,-0.2981 1.5626,-0.4463 2.9181,-0.4463 0.7392,0 1.3639,0.0522 1.8691,0.1549 0.5068,0.1044 0.8907,0.2577 1.15,0.4614 0.2829,0.2206 0.4833,0.485 0.6028,0.7965 0.1179,0.3098 0.1768,0.7543 0.1768,1.3336l0 2.1856c0,0.2105 0.0186,0.3738 0.0573,0.4867 0.037,0.1128 0.101,0.2037 0.1936,0.2694l0 0.1229 -2.6284 0c-0.0472,-0.1111 -0.0842,-0.2324 -0.1112,-0.362 -0.0286,-0.1314 -0.0454,-0.2678 -0.0522,-0.4126zm3.8543 0.7746l0 -5.6577 2.5056 0 0 0.5876c0.3351,-0.2408 0.6786,-0.4176 1.0305,-0.5287 0.3519,-0.1128 0.7325,-0.1684 1.14,-0.1684 0.458,0 0.8402,0.0808 1.15,0.2442 0.3099,0.1633 0.5742,0.4209 0.7948,0.7729 0.3721,-0.3486 0.7611,-0.6062 1.1686,-0.7696 0.4075,-0.165 0.8604,-0.2475 1.3572,-0.2475 0.7998,0 1.3841,0.2105 1.7562,0.6315 0.3722,0.4209 0.5574,1.0894 0.5574,2.0037l0 3.132 -2.4955 0 0 -2.6588c0,-0.4142 -0.0656,-0.7022 -0.197,-0.8655 -0.1313,-0.1633 -0.3553,-0.2442 -0.6718,-0.2442 -0.3553,0 -0.6332,0.0893 -0.8336,0.2661 -0.2003,0.1785 -0.3014,0.4226 -0.3014,0.7358l0 2.7666 -2.4516 0 0 -2.6588c0,-0.4142 -0.0657,-0.7022 -0.1971,-0.8655 -0.1313,-0.1633 -0.3569,-0.2442 -0.6769,-0.2442 -0.3519,0 -0.628,0.0893 -0.8284,0.2661 -0.2004,0.1785 -0.3014,0.4226 -0.3014,0.7358l0 2.7666 -2.5056 0zm14.9863 -3.4536l2.9989 0c-0.0354,-0.3132 -0.1768,-0.554 -0.4243,-0.7257 -0.2459,-0.1701 -0.5776,-0.256 -0.9918,-0.256 -0.4462,0 -0.8066,0.0842 -1.0777,0.2509 -0.2711,0.1684 -0.4395,0.4126 -0.5051,0.7308zm5.5449 1.7277c-0.192,0.628 -0.6331,1.1046 -1.3269,1.4295 -0.6937,0.325 -1.6182,0.4884 -2.7733,0.4884 -1.2814,0 -2.2732,-0.2627 -2.9737,-0.7898 -0.7005,-0.5253 -1.0507,-1.2696 -1.0507,-2.2294 0,-0.9631 0.3502,-1.7091 1.0507,-2.2345 0.7005,-0.527 1.6923,-0.7897 2.9737,-0.7897 1.3622,0 2.3944,0.2964 3.0966,0.8908 0.7022,0.5944 1.0524,1.4666 1.0524,2.6167l0 0.0993 -5.4658 0c0,0.3065 0.128,0.5422 0.3856,0.7106 0.256,0.1667 0.6163,0.2509 1.0794,0.2509 0.3065,0 0.5607,-0.037 0.7645,-0.1128 0.2037,-0.0758 0.3502,-0.1852 0.4394,-0.33l2.7481 0zm0.586 -0.0792l3.0831 -0.005c0.0202,0.197 0.1061,0.3401 0.2593,0.426 0.1533,0.0875 0.4008,0.1313 0.7426,0.1313 0.2863,0 0.5035,-0.032 0.65,-0.096 0.1465,-0.064 0.2189,-0.1599 0.2189,-0.2896 0,-0.2223 -0.3839,-0.3687 -1.1501,-0.4378 -0.1515,-0.0168 -0.266,-0.0286 -0.3452,-0.0353 -0.0067,0 -0.0134,0 -0.0202,0 -1.2359,-0.1213 -2.0711,-0.2796 -2.5056,-0.4732 -0.2542,-0.1111 -0.4479,-0.2879 -0.5842,-0.5287 -0.1364,-0.2391 -0.2055,-0.522 -0.2055,-0.8487 0,-0.6533 0.2997,-1.1332 0.8975,-1.4346 0.5995,-0.3031 1.5525,-0.4547 2.8626,-0.4547 1.2359,0 2.157,0.1549 2.7598,0.4631 0.6045,0.3098 0.9261,0.788 0.9648,1.4363l-2.9063 0c-0.0168,-0.1903 -0.1044,-0.3283 -0.2644,-0.4142 -0.1582,-0.0859 -0.4142,-0.128 -0.7661,-0.128 -0.2997,0 -0.5186,0.032 -0.6584,0.096 -0.1398,0.064 -0.2105,0.1633 -0.2105,0.298 0,0.2172 0.3284,0.3519 0.9868,0.4041 0.138,0.0135 0.2441,0.0236 0.3165,0.0304 0.0522,0.0033 0.1347,0.0101 0.2459,0.0202 1.3252,0.1178 2.098,0.2155 2.3186,0.2913 0.4345,0.1532 0.7392,0.3435 0.9177,0.5691 0.1768,0.2256 0.2661,0.5338 0.2661,0.9244 0,0.7241 -0.3183,1.2461 -0.9548,1.5694 -0.6365,0.3216 -1.6788,0.4833 -3.1302,0.4833 -1.2882,0 -2.2345,-0.16 -2.839,-0.4816 -0.6028,-0.32 -0.9194,-0.8251 -0.9497,-1.5155z"/>
  </g>
 </g>
</svg>
