<?xml version="1.0" encoding="UTF-8"?>
<!DOCTYPE svg PUBLIC "-//W3C//DTD SVG 1.1//EN" "http://www.w3.org/Graphics/SVG/1.1/DTD/svg11.dtd">
<!-- Creator: CorelDRAW -->
<svg xmlns="http://www.w3.org/2000/svg" xml:space="preserve" width="420mm" height="297mm" style="shape-rendering:geometricPrecision; text-rendering:geometricPrecision; image-rendering:optimizeQuality; fill-rule:evenodd; clip-rule:evenodd"
viewBox="0 0 420 297"
 xmlns:xlink="http://www.w3.org/1999/xlink">
 <defs>
  <style type="text/css">
   <![CDATA[
    .str2 {stroke:black;stroke-width:0.5}
    .str3 {stroke:#99FF00;stroke-width:2}
    .str0 {stroke:black;stroke-width:4}
    .str1 {stroke:black;stroke-width:10}
    .fil3 {fill:none}
    .fil0 {fill:#663333}
    .fil1 {fill:#999999}
    .fil2 {fill:white}
   ]]>
  </style>
 </defs>
 <g id="Capa_x0020_1">
  <metadata id="CorelCorpID_0Corel-Layer"/>
  <rect class="fil0 str0" x="-5.97041e-005" y="1.73029e-005" width="420" height="297"/>
  <rect class="fil1 str1" x="14.5567" y="16.0257" width="320.622" height="265.501"/>
  <rect class="fil2 str2" x="30.8514" y="29.519" width="288.032" height="238.514"/>
  <path class="fil3 str3" d="M377.964 54.4201c0,-1.4254 1.0833,-2.5809 2.4196,-2.5809 1.3363,0 2.4196,1.1555 2.4196,2.5809 0,2.8508 -2.1666,5.1618 -4.8392,5.1618 -2.6726,0 -4.8392,-2.311 -4.8392,-5.1618 0,-4.2762 3.2499,-7.7427 7.2588,-7.7427 4.009,0 7.2588,3.4665 7.2588,7.7427 0,5.7016 -4.3331,10.3236 -9.6784,10.3236 -5.3452,0 -9.6784,-4.622 -9.6784,-10.3236 0,-7.127 5.4164,-12.9046 12.098,-12.9046 6.6816,0 12.0981,5.7776 12.0981,12.9046 0,8.5524 -6.4998,15.4855 -14.5177,15.4855 -8.0178,0 -14.5177,-6.9331 -14.5177,-15.4855 0,-9.9778 7.5832,-18.0664 16.9373,-18.0664 9.3542,0 16.9373,8.0886 16.9373,18.0664 0,11.4032 -8.6664,20.6473 -19.3569,20.6473 -10.6905,0 -19.3568,-9.2441 -19.3568,-20.6473"/>
 </g>
</svg>
